# Blender 4.5.3 LTS
# www.blender.org
mtllib floor2.mtl
o Plane
v -6.605943 0.000000 6.605943
v 6.605943 0.000000 6.605943
v -6.605943 0.000000 -6.605943
v 6.605943 0.000000 -6.605943
v -6.605943 -0.132119 6.605943
v 6.605943 -0.132119 6.605943
v -6.605943 -0.132119 -6.605943
v 6.605943 -0.132119 -6.605943
vn -0.0000 1.0000 -0.0000
vn -0.0000 -1.0000 -0.0000
vn -1.0000 -0.0000 -0.0000
vn -0.0000 -0.0000 1.0000
vn 1.0000 -0.0000 -0.0000
vn -0.0000 -0.0000 -1.0000
vt -2.802971 -2.802971
vt 3.802971 -2.802971
vt 3.802971 3.802971
vt -2.802971 3.802971
s 0
usemtl Cobblestones
f 1/1/1 2/2/1 4/3/1 3/4/1
f 5/1/2 7/4/2 8/3/2 6/2/2
f 1/1/3 3/4/3 7/4/3 5/1/3
f 2/2/4 1/1/4 5/1/4 6/2/4
f 4/3/5 2/2/5 6/2/5 8/3/5
f 3/4/6 4/3/6 8/3/6 7/4/6
